HIERARCHY
ROOT Hips
{
	OFFSET 0.0000 0.0000 0.0000
	CHANNELS 6 Xposition Yposition Zposition Zrotation Xrotation Yrotation
	JOINT Spine1
	{
		OFFSET -0.0137 5.0038 -0.0537
		CHANNELS 3 Zrotation Xrotation Yrotation
		JOINT Spine2
		{
			OFFSET -0.0000 7.1253 -0.0298
			CHANNELS 3 Zrotation Xrotation Yrotation
			JOINT Chest
			{
				OFFSET -0.0000 7.5501 -0.8160
				CHANNELS 3 Zrotation Xrotation Yrotation
				JOINT Neck1
				{
					OFFSET -0.1817 26.3113 -0.5533
					CHANNELS 3 Zrotation Xrotation Yrotation
					JOINT Neck2
					{
						OFFSET -0.0000 7.7094 2.3026
						CHANNELS 3 Zrotation Xrotation Yrotation
						JOINT Head
						{
							OFFSET -0.0000 6.1289 1.9537
							CHANNELS 3 Zrotation Xrotation Yrotation
							JOINT Jaw
							{
								OFFSET 0.0026 0.4756 3.0949
								CHANNELS 3 Zrotation Xrotation Yrotation
								End Site
								{
									OFFSET 0.0 1.0 0.0
								}
							}
							JOINT LeftEye
							{
								OFFSET 3.2064 5.3802 7.5869
								CHANNELS 3 Zrotation Xrotation Yrotation
								End Site
								{
									OFFSET 0.0 1.0 0.0
								}
							}
							JOINT RightEye
							{
								OFFSET -3.2224 5.3619 7.5582
								CHANNELS 3 Zrotation Xrotation Yrotation
								End Site
								{
									OFFSET 0.0 1.0 0.0
								}
							}
						}
					}
				}
				JOINT LeftShoulder
				{
					OFFSET 1.6217 23.2372 5.1134
					CHANNELS 3 Zrotation Xrotation Yrotation
					JOINT LeftArm
					{
						OFFSET 14.9198 0.0000 -5.5023
						CHANNELS 3 Zrotation Xrotation Yrotation
						JOINT LeftForeArm
						{
							OFFSET 28.7393 0.0000 -0.0026
							CHANNELS 3 Zrotation Xrotation Yrotation
							JOINT LeftHand
							{
								OFFSET 27.0940 -0.0000 0.0026
								CHANNELS 3 Zrotation Xrotation Yrotation
								JOINT LeftHandThumbEnd
								{
									OFFSET 12.2686 -3.2202 4.8331
									CHANNELS 3 Zrotation Xrotation Yrotation
									End Site
									{
										OFFSET 0.0 1.0 0.0
									}
								}
								JOINT LeftHandMiddleEnd
								{
									OFFSET 19.0120 -0.3129 -0.0340
									CHANNELS 3 Zrotation Xrotation Yrotation
									End Site
									{
										OFFSET 0.0 1.0 0.0
									}
								}
							}
						}
					}
				}
				JOINT RightShoulder
				{
					OFFSET -1.3801 23.1803 5.2142
					CHANNELS 3 Zrotation Xrotation Yrotation
					JOINT RightArm
					{
						OFFSET -15.0372 0.0000 -5.5456
						CHANNELS 3 Zrotation Xrotation Yrotation
						JOINT RightForeArm
						{
							OFFSET -28.7366 0.0000 -0.0026
							CHANNELS 3 Zrotation Xrotation Yrotation
							JOINT RightHand
							{
								OFFSET -27.1336 -0.0000 0.0026
								CHANNELS 3 Zrotation Xrotation Yrotation
								JOINT RightHandThumbEnd
								{
									OFFSET -12.2642 -3.2115 4.8040
									CHANNELS 3 Zrotation Xrotation Yrotation
									End Site
									{
										OFFSET 0.0 1.0 0.0
									}
								}
								JOINT RightHandMiddleEnd
								{
									OFFSET -19.0006 -0.3066 -0.0316
									CHANNELS 3 Zrotation Xrotation Yrotation
									End Site
									{
										OFFSET 0.0 1.0 0.0
									}
								}
							}
						}
					}
				}
			}
		}
	}
	JOINT LeftLeg
	{
		OFFSET 10.0432 -8.4345 2.5957
		CHANNELS 3 Zrotation Xrotation Yrotation
		JOINT LeftShin
		{
			OFFSET -0.0000 -43.2218 -0.8029
			CHANNELS 3 Zrotation Xrotation Yrotation
			JOINT LeftFoot
			{
				OFFSET 0.0000 -42.1551 -3.4815
				CHANNELS 3 Zrotation Xrotation Yrotation
				JOINT LeftToeBase
				{
					OFFSET 0.0000 -5.0595 13.2315
					CHANNELS 3 Zrotation Xrotation Yrotation
					End Site
					{
						OFFSET 0.0 1.0 0.0
					}
				}
			}
		}
	}
	JOINT RightLeg
	{
		OFFSET -10.0473 -8.2953 2.6203
		CHANNELS 3 Zrotation Xrotation Yrotation
		JOINT RightShin
		{
			OFFSET 0.0000 -43.3622 -0.8056
			CHANNELS 3 Zrotation Xrotation Yrotation
			JOINT RightFoot
			{
				OFFSET 0.0000 -42.1174 -3.4784
				CHANNELS 3 Zrotation Xrotation Yrotation
				JOINT RightToeBase
				{
					OFFSET -0.0000 -5.0796 13.2842
					CHANNELS 3 Zrotation Xrotation Yrotation
					End Site
					{
						OFFSET 0.0 1.0 0.0
					}
				}
			}
		}
	}
}
MOTION
Frames: 9
Frame Time: 0.033333
4.6141 88.2844 -2.3816 -11.7840 2.7075 -15.3127 -5.8442 7.8998 -0.0981 -2.6790 -1.7491 -0.5095 -2.3107 11.1487 -3.4969 -12.4409 9.4079 8.3061 3.5558 -4.0655 14.9920 -1.6488 -10.3411 18.4401 0.0760 -0.0546 -0.1679 0.7982 -10.5755 -4.0001 -0.6608 -10.5366 3.6544 11.8355 8.9291 -13.0715 -6.1573 -33.3185 22.3230 1.4848 -1.5133 -83.6974 6.0437 -45.6601 -13.0330 -15.8964 10.1811 15.2045 -61.8562 1.9280 2.3494 10.5181 10.2886 8.8544 48.1487 14.2383 15.0743 1.2222 1.4247 116.6555 -18.5509 -14.1701 7.3895 16.0683 7.0864 -16.5725 50.2252 -3.8855 -5.8589 27.4355 -47.2039 21.8763 -1.1100 59.6562 -1.5739 -13.8879 -17.2537 4.2424 1.6298 1.5719 -1.8198 -8.3809 -26.4125 -1.2884 0.8103 40.8796 1.6062 21.0040 -18.5906 7.1477 -1.4570 -0.4370 1.1196
4.0824 88.0746 -2.5555 -11.3736 2.2877 -15.0035 -5.7531 8.0609 -0.1407 -2.6572 -1.7230 -0.5729 -2.0766 11.2925 -3.4815 -12.5164 9.1156 8.2712 3.5966 -4.0502 15.0771 -1.7846 -10.4132 18.6790 0.0664 -0.0552 -0.1560 0.7978 -10.5378 -3.9784 -0.6807 -10.4917 3.6615 12.1039 9.2693 -13.1024 -6.3359 -32.0933 22.6585 1.9175 -1.4629 -88.7278 6.5652 -47.0300 -13.1467 -15.7212 10.2061 15.1728 -61.6152 1.9081 2.3296 10.3729 10.3030 8.9490 47.4433 13.8813 15.0349 1.1408 1.2373 115.9905 -18.9129 -14.4622 6.9150 15.9540 7.1032 -16.5078 50.2247 -3.8621 -5.8185 27.5927 -46.9278 21.8886 -1.1119 59.6436 -1.5817 -13.9549 -16.9965 3.8950 1.6237 1.6057 -1.8555 -8.5498 -26.6572 -1.2988 0.8093 42.3934 1.5684 20.6701 -19.3324 7.4348 -1.4570 -0.3352 1.0950
3.5396 87.8913 -2.7195 -11.0055 1.8900 -14.7474 -5.6516 8.2085 -0.1960 -2.5957 -1.7228 -0.6424 -1.8498 11.4637 -3.4753 -12.7260 8.9037 8.2754 3.6183 -4.0365 15.1476 -1.9416 -10.4528 18.9104 0.0629 -0.0557 -0.1485 0.8024 -10.5042 -3.9662 -0.6934 -10.4494 3.6677 12.4137 9.6428 -13.0771 -6.7978 -30.9987 23.1047 2.2580 -1.3573 -93.6539 6.7706 -48.2180 -13.1015 -15.5327 10.2377 15.1500 -61.3916 1.8901 2.3209 10.1762 10.3726 8.9993 46.7137 13.6257 14.7471 1.1324 1.0604 115.6044 -19.0419 -14.5748 6.2923 15.8606 7.1390 -16.4719 50.2328 -3.8305 -5.7781 27.7973 -46.6502 21.9202 -1.1086 59.5494 -1.5860 -14.0094 -16.6860 3.4937 1.6157 1.6549 -1.8690 -8.6614 -26.8645 -1.3297 0.8229 43.7468 1.5479 20.3468 -19.9673 7.7690 -1.4547 -0.2997 1.0825
3.0064 87.7468 -2.8496 -10.6705 1.4990 -14.5975 -5.5166 8.3243 -0.2310 -2.5317 -1.7402 -0.7273 -1.6427 11.6526 -3.4754 -13.0304 8.8071 8.3203 3.6497 -4.0153 15.1736 -2.0999 -10.4054 19.0836 0.0576 -0.0547 -0.1336 0.8033 -10.4804 -3.9471 -0.7064 -10.4152 3.6827 12.5398 9.9543 -13.0086 -7.3960 -29.9489 23.6084 2.5388 -1.1528 -98.0378 6.8890 -49.0013 -13.0495 -15.3403 10.2585 15.0894 -61.1814 1.8720 2.3193 9.9916 10.5116 9.0126 45.9516 13.5845 14.3992 1.0841 0.9687 115.5589 -18.9060 -14.5222 5.6467 15.8060 7.1941 -16.4835 50.2441 -3.8289 -5.7665 28.0325 -46.3138 22.0357 -1.1015 59.3318 -1.5864 -14.1303 -16.3671 3.1174 1.6078 1.6834 -1.8697 -8.7217 -26.9835 -1.3441 0.8384 44.8875 1.5168 19.9845 -20.5237 8.0757 -1.4507 -0.2917 1.0729
2.4513 87.6530 -2.9856 -10.3319 1.1281 -14.4957 -5.3527 8.4005 -0.2535 -2.4567 -1.7659 -0.8253 -1.4886 11.8300 -3.4800 -13.3533 8.8219 8.3595 3.6766 -3.9962 15.1522 -2.2677 -10.3664 19.2169 0.0509 -0.0508 -0.1141 0.7999 -10.4644 -3.9249 -0.7178 -10.3898 3.7039 12.4096 10.2288 -12.9257 -8.0838 -28.7726 24.0716 2.8632 -0.9231 -101.8565 6.9325 -49.5076 -12.9830 -15.1920 10.2675 15.0200 -61.0563 1.8549 2.3156 9.7847 10.7093 8.9840 45.2325 13.6299 14.0245 1.0383 0.9199 115.7794 -18.5905 -14.3885 5.0595 15.7587 7.2328 -16.4934 50.2477 -3.8158 -5.7689 28.1852 -45.9274 22.2933 -1.0927 58.9829 -1.5782 -14.2502 -16.0140 2.6722 1.5972 1.7026 -1.8570 -8.7575 -27.0030 -1.3863 0.8613 45.8128 1.5084 19.6296 -21.0155 8.2930 -1.4431 -0.2910 1.0793
1.8948 87.6532 -3.0563 -9.9604 0.7785 -14.3640 -5.1601 8.4170 -0.2595 -2.3920 -1.7957 -0.9219 -1.3811 12.0048 -3.5217 -13.6396 8.9133 8.3662 3.7064 -3.9792 15.0827 -2.4609 -10.2615 19.3007 0.0486 -0.0446 -0.1057 0.8026 -10.4713 -3.9232 -0.7259 -10.3932 3.7208 12.0002 10.4153 -12.8434 -8.9832 -27.3740 24.4536 3.2757 -0.6755 -105.2819 6.9109 -49.7866 -12.8452 -15.0853 10.2838 14.9502 -60.9948 1.8360 2.2852 9.6044 10.9744 8.9730 44.5741 13.6752 13.5566 1.0069 0.9355 116.1052 -18.1270 -14.1812 4.5471 15.7394 7.2469 -16.5145 50.2402 -3.8040 -5.7768 28.1838 -45.4338 22.7119 -1.0460 58.3952 -1.5252 -14.4005 -15.5521 2.2010 1.5890 1.7032 -1.8516 -8.7807 -26.8779 -1.4674 0.8691 46.4744 1.4821 19.2104 -21.4019 8.3900 -1.4358 -0.2356 1.0831
1.3250 87.7645 -3.1404 -9.5784 0.4581 -14.1349 -4.9653 8.3823 -0.2802 -2.3339 -1.8091 -0.9782 -1.3126 12.1671 -3.6192 -13.8784 9.0967 8.3623 3.7062 -3.9595 14.9405 -2.6509 -10.1794 19.3442 0.0526 -0.0417 -0.1082 0.8095 -10.4702 -3.9293 -0.7253 -10.3936 3.7209 11.3013 10.5879 -12.7606 -10.1657 -26.0536 24.7759 3.6281 -0.4825 -108.4728 6.9028 -49.8686 -12.5982 -15.0400 10.2894 14.9088 -60.9372 1.7892 2.2790 9.4444 11.2067 8.9670 44.0187 13.7297 13.0519 1.0184 1.0783 116.3527 -17.5971 -13.8685 4.1102 15.6763 7.2576 -16.5724 50.2197 -3.8417 -5.7599 28.0414 -44.7906 23.2374 -0.9833 57.4454 -1.4619 -14.5367 -14.9363 1.7232 1.5827 1.6748 -1.8440 -8.7671 -26.5257 -1.6493 0.8654 46.7306 1.4601 18.7778 -21.6388 8.3493 -1.4293 -0.1507 1.0894
0.7343 88.0399 -3.1698 -9.1841 0.2090 -13.7279 -4.7518 8.3205 -0.3248 -2.2694 -1.8605 -1.0323 -1.2854 12.3377 -3.7289 -14.0688 9.4076 8.3198 3.6731 -3.9420 14.7818 -2.8327 -10.1019 19.2724 0.0619 -0.0409 -0.1216 0.8175 -10.4753 -3.9468 -0.7150 -10.3998 3.7092 10.3704 10.7718 -12.6884 -11.8078 -24.8346 25.0762 3.8230 -0.3309 -111.5477 6.8027 -50.0123 -12.1224 -14.9754 10.3036 14.8624 -60.8017 1.7603 2.2749 9.2782 11.3964 8.9701 43.5260 13.8513 12.5095 0.9960 1.2468 116.4167 -17.0868 -13.5452 3.8559 15.5751 7.2985 -16.6397 50.2387 -3.8270 -5.7385 27.6921 -44.0404 23.8608 -0.9521 56.1053 -1.4457 -14.6168 -14.1820 1.2702 1.5766 1.6084 -1.8346 -8.6995 -25.9535 -2.0157 0.8402 46.5635 1.4144 18.3600 -21.7277 8.2296 -1.4253 -0.0226 1.0993
0.1511 88.4854 -3.1772 -8.7542 0.0462 -13.1312 -4.5303 8.2153 -0.3706 -2.2078 -1.9065 -1.0439 -1.3134 12.4812 -3.8629 -14.1445 9.8948 8.2772 3.5910 -3.9057 14.6046 -3.0539 -10.0501 19.0738 0.0675 -0.0413 -0.1346 0.8168 -10.4711 -3.9645 -0.7030 -10.3988 3.6985 9.3104 10.9445 -12.6038 -13.9468 -23.4868 25.2321 3.8403 -0.2965 -114.6176 6.5771 -50.1585 -11.4258 -14.9148 10.3445 14.8252 -60.6169 1.7843 2.2616 9.1394 11.5461 8.9998 43.0901 13.9635 11.8130 0.9726 1.4548 116.2708 -16.5567 -13.1334 3.7152 15.5360 7.3864 -16.7249 50.3086 -3.7896 -5.6909 27.0986 -43.1206 24.5139 -0.9096 54.3137 -1.4165 -14.6531 -13.2204 0.8002 1.5790 1.4640 -1.8259 -8.6238 -25.1571 -2.6207 0.7898 45.8787 1.3546 17.9545 -21.5731 8.0687 -1.4269 0.0772 1.0863
